General
Unique ID                                : 86560449603612550683344891257336905921 (0x411EEFAA171DB6157A8FE9D6EF4040C1)
Complete name                            : 10.Cloverfield.Lane.2016.UHD.BluRay.2160p.TrueHD.Atmos.7.1.DV.HEVC.REMUX-FraMeSToR.mkv
Format                                   : Matroska
Format version                           : Version 4
File size                                : 45.5 GiB
Duration                                 : 1 h 43 min
Overall bit rate mode                    : Variable
Overall bit rate                         : 62.8 Mb/s
Movie name                               : 10 Cloverfield Lane (2016) DV
Encoded date                             : UTC 2020-11-23 21:04:30
Writing application                      : mkvmerge v51.0.0 ('I Wish') 64-bit
Writing library                          : libebml v1.4.0 + libmatroska v1.6.2
IMDB                                     : tt1179933
TMDB                                     : movie/333371

Video
ID                                       : 1
ID in the original source medium         : 4113 (0x1011)
Format                                   : HEVC
Format/Info                              : High Efficiency Video Coding
Format profile                           : Main 10@L5.1@High
HDR format                               : Dolby Vision, Version 1.0, dvhe.07.06, BL+EL+RPU, Blu-ray compatible / SMPTE ST 2086, HDR10 compatible
Codec ID                                 : V_MPEGH/ISO/HEVC
Duration                                 : 1 h 43 min
Bit rate                                 : 56.2 Mb/s
Width                                    : 3 840 pixels
Height                                   : 2 160 pixels
Display aspect ratio                     : 16:9
Frame rate mode                          : Constant
Frame rate                               : 23.976 (24000/1001) FPS
Color space                              : YUV
Chroma subsampling                       : 4:2:0 (Type 2)
Bit depth                                : 10 bits
Bits/(Pixel*Frame)                       : 0.283
Stream size                              : 40.7 GiB (89%)
Default                                  : Yes
Forced                                   : No
Color range                              : Limited
Color primaries                          : BT.2020
Transfer characteristics                 : PQ
Matrix coefficients                      : BT.2020 non-constant
Mastering display color primaries        : Display P3
Mastering display luminance              : min: 0.0001 cd/m2, max: 1000 cd/m2
Original source medium                   : Blu-ray

Audio #1
ID                                       : 2
Format                                   : MLP FBA 16-ch
Format/Info                              : Meridian Lossless Packing FBA with 16-channel presentation
Commercial name                          : Dolby TrueHD with Dolby Atmos
Codec ID                                 : A_TRUEHD
Duration                                 : 1 h 43 min
Bit rate mode                            : Variable
Bit rate                                 : 4 614 kb/s
Maximum bit rate                         : 8 544 kb/s
Channel(s)                               : 8 channels
Channel layout                           : L R C LFE Ls Rs Lb Rb
Sampling rate                            : 48.0 kHz
Frame rate                               : 1 200.000 FPS (40 SPF)
Compression mode                         : Lossless
Stream size                              : 3.34 GiB (7%)
Title                                    : TrueHD Atmos 7.1
Language                                 : English
Default                                  : Yes
Forced                                   : No
Number of dynamic objects                : 11
Bed channel count                        : 1 channel
Bed channel configuration                : LFE

Audio #2
ID                                       : 3
Format                                   : AC-3
Format/Info                              : Audio Coding 3
Commercial name                          : Dolby Digital
Codec ID                                 : A_AC3
Duration                                 : 1 h 43 min
Bit rate mode                            : Constant
Bit rate                                 : 640 kb/s
Channel(s)                               : 6 channels
Channel layout                           : L R C LFE Ls Rs
Sampling rate                            : 48.0 kHz
Frame rate                               : 31.250 FPS (1536 SPF)
Compression mode                         : Lossy
Stream size                              : 474 MiB (1%)
Title                                    : AC-3 5.1-EX
Language                                 : English
Service kind                             : Complete Main
Default                                  : No
Forced                                   : No

Audio #3
ID                                       : 4
Format                                   : AC-3
Format/Info                              : Audio Coding 3
Commercial name                          : Dolby Digital
Codec ID                                 : A_AC3
Duration                                 : 1 h 43 min
Bit rate mode                            : Constant
Bit rate                                 : 224 kb/s
Channel(s)                               : 2 channels
Channel layout                           : L R
Sampling rate                            : 48.0 kHz
Frame rate                               : 31.250 FPS (1536 SPF)
Compression mode                         : Lossy
Stream size                              : 166 MiB (0%)
Title                                    : Commentary by director Dan Trachtenberg and producer J.J. Abrams
Language                                 : English
Service kind                             : Complete Main
Default                                  : No
Forced                                   : No

Text #1
ID                                       : 5
Format                                   : PGS
Codec ID                                 : S_HDMV/PGS
Codec ID/Info                            : Picture based subtitle format used on BDs/HD-DVDs
Duration                                 : 1 h 32 min
Bit rate                                 : 22.0 kb/s
Count of elements                        : 1644
Stream size                              : 14.6 MiB (0%)
Title                                    : English
Language                                 : English
Default                                  : No
Forced                                   : No

Text #2
ID                                       : 6
Format                                   : PGS
Codec ID                                 : S_HDMV/PGS
Codec ID/Info                            : Picture based subtitle format used on BDs/HD-DVDs
Duration                                 : 1 h 36 min
Bit rate                                 : 26.0 kb/s
Count of elements                        : 2126
Stream size                              : 17.9 MiB (0%)
Title                                    : English (SDH)
Language                                 : English
Default                                  : No
Forced                                   : No

Text #3
ID                                       : 7
Format                                   : PGS
Codec ID                                 : S_HDMV/PGS
Codec ID/Info                            : Picture based subtitle format used on BDs/HD-DVDs
Duration                                 : 1 h 39 min
Bit rate                                 : 11.0 kb/s
Count of elements                        : 1568
Stream size                              : 7.79 MiB (0%)
Title                                    : Arabic
Language                                 : Arabic
Default                                  : No
Forced                                   : No

Text #4
ID                                       : 8
Format                                   : PGS
Codec ID                                 : S_HDMV/PGS
Codec ID/Info                            : Picture based subtitle format used on BDs/HD-DVDs
Duration                                 : 1 h 39 min
Bit rate                                 : 13.3 kb/s
Count of elements                        : 1570
Stream size                              : 9.45 MiB (0%)
Title                                    : Chinese (Cantonese)
Language                                 : Chinese
Default                                  : No
Forced                                   : No

Text #5
ID                                       : 9
Format                                   : PGS
Codec ID                                 : S_HDMV/PGS
Codec ID/Info                            : Picture based subtitle format used on BDs/HD-DVDs
Duration                                 : 1 h 39 min
Bit rate                                 : 15.4 kb/s
Count of elements                        : 1632
Stream size                              : 10.9 MiB (0%)
Title                                    : Chinese (Simplified)
Language                                 : Chinese
Default                                  : No
Forced                                   : No

Text #6
ID                                       : 10
Format                                   : PGS
Codec ID                                 : S_HDMV/PGS
Codec ID/Info                            : Picture based subtitle format used on BDs/HD-DVDs
Duration                                 : 1 h 39 min
Bit rate                                 : 15.8 kb/s
Count of elements                        : 1638
Stream size                              : 11.2 MiB (0%)
Title                                    : Chinese (Traditional)
Language                                 : Chinese
Default                                  : No
Forced                                   : No

Text #7
ID                                       : 11
Format                                   : PGS
Codec ID                                 : S_HDMV/PGS
Codec ID/Info                            : Picture based subtitle format used on BDs/HD-DVDs
Duration                                 : 1 h 39 min
Bit rate                                 : 17.9 kb/s
Count of elements                        : 1558
Stream size                              : 12.7 MiB (0%)
Title                                    : Czech
Language                                 : Czech
Default                                  : No
Forced                                   : No

Text #8
ID                                       : 12
Format                                   : PGS
Codec ID                                 : S_HDMV/PGS
Codec ID/Info                            : Picture based subtitle format used on BDs/HD-DVDs
Duration                                 : 1 h 39 min
Bit rate                                 : 19.1 kb/s
Count of elements                        : 1354
Stream size                              : 13.6 MiB (0%)
Title                                    : Danish
Language                                 : Danish
Default                                  : No
Forced                                   : No

Text #9
ID                                       : 13
Format                                   : PGS
Codec ID                                 : S_HDMV/PGS
Codec ID/Info                            : Picture based subtitle format used on BDs/HD-DVDs
Duration                                 : 1 h 39 min
Bit rate                                 : 17.5 kb/s
Count of elements                        : 1428
Stream size                              : 12.4 MiB (0%)
Title                                    : Dutch
Language                                 : Dutch
Default                                  : No
Forced                                   : No

Text #10
ID                                       : 14
Format                                   : PGS
Codec ID                                 : S_HDMV/PGS
Codec ID/Info                            : Picture based subtitle format used on BDs/HD-DVDs
Duration                                 : 1 h 39 min
Bit rate                                 : 20.0 kb/s
Count of elements                        : 1674
Stream size                              : 14.2 MiB (0%)
Title                                    : Estonian
Language                                 : Estonian
Default                                  : No
Forced                                   : No

Text #11
ID                                       : 15
Format                                   : PGS
Codec ID                                 : S_HDMV/PGS
Codec ID/Info                            : Picture based subtitle format used on BDs/HD-DVDs
Duration                                 : 1 h 39 min
Bit rate                                 : 18.6 kb/s
Count of elements                        : 1672
Stream size                              : 13.2 MiB (0%)
Title                                    : Finnish
Language                                 : Finnish
Default                                  : No
Forced                                   : No

Text #12
ID                                       : 16
Format                                   : PGS
Codec ID                                 : S_HDMV/PGS
Codec ID/Info                            : Picture based subtitle format used on BDs/HD-DVDs
Duration                                 : 1 h 39 min
Bit rate                                 : 18.3 kb/s
Count of elements                        : 1626
Stream size                              : 12.9 MiB (0%)
Title                                    : French
Language                                 : French
Default                                  : No
Forced                                   : No

Text #13
ID                                       : 17
Format                                   : PGS
Codec ID                                 : S_HDMV/PGS
Codec ID/Info                            : Picture based subtitle format used on BDs/HD-DVDs
Duration                                 : 1 h 39 min
Bit rate                                 : 21.8 kb/s
Count of elements                        : 1668
Stream size                              : 15.4 MiB (0%)
Title                                    : German
Language                                 : German
Default                                  : No
Forced                                   : No

Text #14
ID                                       : 18
Format                                   : PGS
Codec ID                                 : S_HDMV/PGS
Codec ID/Info                            : Picture based subtitle format used on BDs/HD-DVDs
Duration                                 : 1 h 39 min
Bit rate                                 : 21.1 kb/s
Count of elements                        : 1558
Stream size                              : 15.0 MiB (0%)
Title                                    : Greek
Language                                 : Greek
Default                                  : No
Forced                                   : No

Text #15
ID                                       : 19
Format                                   : PGS
Codec ID                                 : S_HDMV/PGS
Codec ID/Info                            : Picture based subtitle format used on BDs/HD-DVDs
Duration                                 : 1 h 39 min
Bit rate                                 : 13.9 kb/s
Count of elements                        : 1570
Stream size                              : 9.86 MiB (0%)
Title                                    : Hebrew
Language                                 : Hebrew
Default                                  : No
Forced                                   : No

Text #16
ID                                       : 20
Format                                   : PGS
Codec ID                                 : S_HDMV/PGS
Codec ID/Info                            : Picture based subtitle format used on BDs/HD-DVDs
Duration                                 : 1 h 39 min
Bit rate                                 : 16.6 kb/s
Count of elements                        : 1682
Stream size                              : 11.8 MiB (0%)
Title                                    : Hindi
Language                                 : Hindi
Default                                  : No
Forced                                   : No

Text #17
ID                                       : 21
Format                                   : PGS
Codec ID                                 : S_HDMV/PGS
Codec ID/Info                            : Picture based subtitle format used on BDs/HD-DVDs
Duration                                 : 1 h 39 min
Bit rate                                 : 18.9 kb/s
Count of elements                        : 1558
Stream size                              : 13.4 MiB (0%)
Title                                    : Hungarian
Language                                 : Hungarian
Default                                  : No
Forced                                   : No

Text #18
ID                                       : 22
Format                                   : PGS
Codec ID                                 : S_HDMV/PGS
Codec ID/Info                            : Picture based subtitle format used on BDs/HD-DVDs
Duration                                 : 1 h 39 min
Bit rate                                 : 20.0 kb/s
Count of elements                        : 1552
Stream size                              : 14.2 MiB (0%)
Title                                    : Icelandic
Language                                 : Icelandic
Default                                  : No
Forced                                   : No

Text #19
ID                                       : 23
Format                                   : PGS
Codec ID                                 : S_HDMV/PGS
Codec ID/Info                            : Picture based subtitle format used on BDs/HD-DVDs
Duration                                 : 1 h 39 min
Bit rate                                 : 19.4 kb/s
Count of elements                        : 1664
Stream size                              : 13.8 MiB (0%)
Title                                    : Italian
Language                                 : Italian
Default                                  : No
Forced                                   : No

Text #20
ID                                       : 24
Format                                   : PGS
Codec ID                                 : S_HDMV/PGS
Codec ID/Info                            : Picture based subtitle format used on BDs/HD-DVDs
Duration                                 : 1 h 32 min
Bit rate                                 : 15.6 kb/s
Count of elements                        : 1538
Stream size                              : 10.3 MiB (0%)
Title                                    : Japanese
Language                                 : Japanese
Default                                  : No
Forced                                   : No

Text #21
ID                                       : 25
Format                                   : PGS
Codec ID                                 : S_HDMV/PGS
Codec ID/Info                            : Picture based subtitle format used on BDs/HD-DVDs
Duration                                 : 1 h 39 min
Bit rate                                 : 11.6 kb/s
Count of elements                        : 1624
Stream size                              : 8.26 MiB (0%)
Title                                    : Korean
Language                                 : Korean
Default                                  : No
Forced                                   : No

Text #22
ID                                       : 26
Format                                   : PGS
Codec ID                                 : S_HDMV/PGS
Codec ID/Info                            : Picture based subtitle format used on BDs/HD-DVDs
Duration                                 : 1 h 39 min
Bit rate                                 : 18.3 kb/s
Count of elements                        : 1684
Stream size                              : 13.0 MiB (0%)
Title                                    : Latvian
Language                                 : Latvian
Default                                  : No
Forced                                   : No

Text #23
ID                                       : 27
Format                                   : PGS
Codec ID                                 : S_HDMV/PGS
Codec ID/Info                            : Picture based subtitle format used on BDs/HD-DVDs
Duration                                 : 1 h 39 min
Bit rate                                 : 18.2 kb/s
Count of elements                        : 1566
Stream size                              : 12.9 MiB (0%)
Title                                    : Lithuanian
Language                                 : Lithuanian
Default                                  : No
Forced                                   : No

Text #24
ID                                       : 28
Format                                   : PGS
Codec ID                                 : S_HDMV/PGS
Codec ID/Info                            : Picture based subtitle format used on BDs/HD-DVDs
Duration                                 : 1 h 39 min
Bit rate                                 : 22.2 kb/s
Count of elements                        : 1672
Stream size                              : 15.8 MiB (0%)
Title                                    : Malay
Language                                 : Malay
Default                                  : No
Forced                                   : No

Text #25
ID                                       : 29
Format                                   : PGS
Codec ID                                 : S_HDMV/PGS
Codec ID/Info                            : Picture based subtitle format used on BDs/HD-DVDs
Duration                                 : 1 h 39 min
Bit rate                                 : 18.2 kb/s
Count of elements                        : 1556
Stream size                              : 12.9 MiB (0%)
Title                                    : Norwegian
Language                                 : Norwegian
Default                                  : No
Forced                                   : No

Text #26
ID                                       : 30
Format                                   : PGS
Codec ID                                 : S_HDMV/PGS
Codec ID/Info                            : Picture based subtitle format used on BDs/HD-DVDs
Duration                                 : 1 h 39 min
Bit rate                                 : 19.0 kb/s
Count of elements                        : 1540
Stream size                              : 13.4 MiB (0%)
Title                                    : Polish
Language                                 : Polish
Default                                  : No
Forced                                   : No

Text #27
ID                                       : 31
Format                                   : PGS
Codec ID                                 : S_HDMV/PGS
Codec ID/Info                            : Picture based subtitle format used on BDs/HD-DVDs
Duration                                 : 1 h 39 min
Bit rate                                 : 17.4 kb/s
Count of elements                        : 1562
Stream size                              : 12.4 MiB (0%)
Title                                    : Portuguese (Brazilian)
Language                                 : Portuguese
Default                                  : No
Forced                                   : No

Text #28
ID                                       : 32
Format                                   : PGS
Codec ID                                 : S_HDMV/PGS
Codec ID/Info                            : Picture based subtitle format used on BDs/HD-DVDs
Duration                                 : 1 h 39 min
Bit rate                                 : 20.4 kb/s
Count of elements                        : 1588
Stream size                              : 14.5 MiB (0%)
Title                                    : Portuguese (Iberian)
Language                                 : Portuguese
Default                                  : No
Forced                                   : No

Text #29
ID                                       : 33
Format                                   : PGS
Codec ID                                 : S_HDMV/PGS
Codec ID/Info                            : Picture based subtitle format used on BDs/HD-DVDs
Duration                                 : 1 h 39 min
Bit rate                                 : 16.9 kb/s
Count of elements                        : 1560
Stream size                              : 12.0 MiB (0%)
Title                                    : Romanian
Language                                 : Romanian
Default                                  : No
Forced                                   : No

Text #30
ID                                       : 34
Format                                   : PGS
Codec ID                                 : S_HDMV/PGS
Codec ID/Info                            : Picture based subtitle format used on BDs/HD-DVDs
Duration                                 : 1 h 39 min
Bit rate                                 : 18.0 kb/s
Count of elements                        : 1570
Stream size                              : 12.8 MiB (0%)
Title                                    : Russian
Language                                 : Russian
Default                                  : No
Forced                                   : No

Text #31
ID                                       : 35
Format                                   : PGS
Codec ID                                 : S_HDMV/PGS
Codec ID/Info                            : Picture based subtitle format used on BDs/HD-DVDs
Duration                                 : 1 h 39 min
Bit rate                                 : 17.9 kb/s
Count of elements                        : 1558
Stream size                              : 12.7 MiB (0%)
Title                                    : Slovak
Language                                 : Slovak
Default                                  : No
Forced                                   : No

Text #32
ID                                       : 36
Format                                   : PGS
Codec ID                                 : S_HDMV/PGS
Codec ID/Info                            : Picture based subtitle format used on BDs/HD-DVDs
Duration                                 : 1 h 39 min
Bit rate                                 : 19.9 kb/s
Count of elements                        : 1576
Stream size                              : 14.1 MiB (0%)
Title                                    : Spanish (Castilian)
Language                                 : Spanish
Default                                  : No
Forced                                   : No

Text #33
ID                                       : 37
Format                                   : PGS
Codec ID                                 : S_HDMV/PGS
Codec ID/Info                            : Picture based subtitle format used on BDs/HD-DVDs
Duration                                 : 1 h 39 min
Bit rate                                 : 19.3 kb/s
Count of elements                        : 1560
Stream size                              : 13.7 MiB (0%)
Title                                    : Spanish (Latin American)
Language                                 : Spanish
Default                                  : No
Forced                                   : No

Text #34
ID                                       : 38
Format                                   : PGS
Codec ID                                 : S_HDMV/PGS
Codec ID/Info                            : Picture based subtitle format used on BDs/HD-DVDs
Duration                                 : 1 h 39 min
Bit rate                                 : 19.6 kb/s
Count of elements                        : 1548
Stream size                              : 13.9 MiB (0%)
Title                                    : Swedish
Language                                 : Swedish
Default                                  : No
Forced                                   : No

Text #35
ID                                       : 39
Format                                   : PGS
Codec ID                                 : S_HDMV/PGS
Codec ID/Info                            : Picture based subtitle format used on BDs/HD-DVDs
Duration                                 : 1 h 39 min
Bit rate                                 : 15.6 kb/s
Count of elements                        : 1570
Stream size                              : 11.0 MiB (0%)
Title                                    : Thai
Language                                 : Thai
Default                                  : No
Forced                                   : No

Text #36
ID                                       : 40
Format                                   : PGS
Codec ID                                 : S_HDMV/PGS
Codec ID/Info                            : Picture based subtitle format used on BDs/HD-DVDs
Duration                                 : 1 h 39 min
Bit rate                                 : 20.0 kb/s
Count of elements                        : 1564
Stream size                              : 14.2 MiB (0%)
Title                                    : Turkish
Language                                 : Turkish
Default                                  : No
Forced                                   : No

Text #37
ID                                       : 41
Format                                   : PGS
Codec ID                                 : S_HDMV/PGS
Codec ID/Info                            : Picture based subtitle format used on BDs/HD-DVDs
Duration                                 : 1 h 39 min
Bit rate                                 : 19.5 kb/s
Count of elements                        : 1684
Stream size                              : 13.8 MiB (0%)
Title                                    : Ukrainian
Language                                 : Ukrainian
Default                                  : No
Forced                                   : No

Text #38
ID                                       : 42
Format                                   : PGS
Codec ID                                 : S_HDMV/PGS
Codec ID/Info                            : Picture based subtitle format used on BDs/HD-DVDs
Duration                                 : 1 h 43 min
Bit rate                                 : 64.7 kb/s
Count of elements                        : 3830
Stream size                              : 47.8 MiB (0%)
Title                                    : English (Commentary)
Language                                 : English
Default                                  : No
Forced                                   : No

Text #39
ID                                       : 43
Format                                   : PGS
Codec ID                                 : S_HDMV/PGS
Codec ID/Info                            : Picture based subtitle format used on BDs/HD-DVDs
Duration                                 : 1 h 43 min
Bit rate                                 : 52.6 kb/s
Count of elements                        : 3828
Stream size                              : 38.9 MiB (0%)
Title                                    : French (Commentary)
Language                                 : French
Default                                  : No
Forced                                   : No

Text #40
ID                                       : 44
Format                                   : PGS
Codec ID                                 : S_HDMV/PGS
Codec ID/Info                            : Picture based subtitle format used on BDs/HD-DVDs
Duration                                 : 1 h 43 min
Bit rate                                 : 61.3 kb/s
Count of elements                        : 3834
Stream size                              : 45.4 MiB (0%)
Title                                    : German (Commentary)
Language                                 : German
Default                                  : No
Forced                                   : No

Text #41
ID                                       : 45
Format                                   : PGS
Codec ID                                 : S_HDMV/PGS
Codec ID/Info                            : Picture based subtitle format used on BDs/HD-DVDs
Duration                                 : 1 h 43 min
Bit rate                                 : 43.4 kb/s
Count of elements                        : 3162
Stream size                              : 32.1 MiB (0%)
Title                                    : Japanese (Commentary)
Language                                 : Japanese
Default                                  : No
Forced                                   : No

Text #42
ID                                       : 46
Format                                   : PGS
Codec ID                                 : S_HDMV/PGS
Codec ID/Info                            : Picture based subtitle format used on BDs/HD-DVDs
Duration                                 : 1 h 43 min
Bit rate                                 : 41.2 kb/s
Count of elements                        : 3832
Stream size                              : 30.5 MiB (0%)
Title                                    : Korean (Commentary)
Language                                 : Korean
Default                                  : No
Forced                                   : No

Text #43
ID                                       : 47
Format                                   : PGS
Codec ID                                 : S_HDMV/PGS
Codec ID/Info                            : Picture based subtitle format used on BDs/HD-DVDs
Duration                                 : 1 h 43 min
Bit rate                                 : 57.2 kb/s
Count of elements                        : 3832
Stream size                              : 42.3 MiB (0%)
Title                                    : Portuguese (Brazilian) (Commentary)
Language                                 : Portuguese
Default                                  : No
Forced                                   : No

Text #44
ID                                       : 48
Format                                   : PGS
Codec ID                                 : S_HDMV/PGS
Codec ID/Info                            : Picture based subtitle format used on BDs/HD-DVDs
Duration                                 : 1 h 43 min
Bit rate                                 : 57.6 kb/s
Count of elements                        : 3832
Stream size                              : 42.6 MiB (0%)
Title                                    : Spanish (Castilian) (Commentary)
Language                                 : Spanish
Default                                  : No
Forced                                   : No

Text #45
ID                                       : 49
Format                                   : PGS
Codec ID                                 : S_HDMV/PGS
Codec ID/Info                            : Picture based subtitle format used on BDs/HD-DVDs
Duration                                 : 1 h 43 min
Bit rate                                 : 59.6 kb/s
Count of elements                        : 3832
Stream size                              : 44.1 MiB (0%)
Title                                    : Spanish (Latin American) (Commentary)
Language                                 : Spanish
Default                                  : No
Forced                                   : No

Menu
00:00:00.000                             : en:Chapter 1
00:05:55.605                             : en:Chapter 2
00:14:52.517                             : en:Chapter 3
00:19:18.157                             : en:Chapter 4
00:24:11.992                             : en:Chapter 5
00:32:21.940                             : en:Chapter 6
00:42:59.243                             : en:Chapter 7
00:47:47.740                             : en:Chapter 8
00:53:37.089                             : en:Chapter 9
00:57:00.626                             : en:Chapter 10
01:03:10.745                             : en:Chapter 11
01:11:20.193                             : en:Chapter 12
01:15:49.420                             : en:Chapter 13
01:24:21.265                             : en:Chapter 14
01:28:19.085                             : en:Chapter 15
01:37:31.512                             : en:Chapter 16
